<?xml version="1.0" standalone="no"?>
<!DOCTYPE svg PUBLIC "-//W3C//DTD SVG 1.1//EN" "http://www.w3.org/Graphics/SVG/1.1/DTD/svg11.dtd">
<svg class="icon" height="512" viewBox="0 0 1024 1024" version="1.1" xmlns="http://www.w3.org/2000/svg">
<path d="M657.840576 732.301452c-46.817282 1.342578-148.035568-48.007387-148.035568-48.007387l-90.058109 96.012727-149.98292-96.012727L149.720953 684.294065c0 52.988842 44.989657 144.017044 135.025253 144.017044l450.018344 0c135.025253 0 135.025253-144.017044 135.025253-144.017044l-90.007967 0C779.782859 684.294065 747.874125 729.670531 657.840576 732.301452zM821.774229 492.273726 197.73755 492.273726c-39.758516 0-72.02643 32.218796-72.02643 71.978335 0 39.783075 32.267914 72.03871 72.02643 72.03871l624.036679 0c39.805588 0 72.02643-32.255635 72.02643-72.03871C893.800659 524.491499 861.579817 492.273726 821.774229 492.273726zM509.806032 192.210673c-198.890816 0-360.084055 112.889093-360.084055 252.020874l720.068849 0C869.790826 305.10079 708.547445 192.210673 509.806032 192.210673zM341.742315 348.232123c-13.251815 0-24.007787-10.732435-24.007787-24.009833 0-13.239536 10.755971-23.995507 24.007787-23.995507 13.252839 0 24.00881 10.755971 24.00881 23.995507C365.751125 337.500711 354.995153 348.232123 341.742315 348.232123zM509.806032 300.226782c-13.304004 0-24.059975-10.733459-24.059975-23.972994 0-13.278421 10.755971-24.034393 24.059975-24.034393 13.226233 0 23.959691 10.755971 23.959691 24.034393C533.7647 289.493324 523.031241 300.226782 509.806032 300.226782zM677.769464 348.232123c-13.254885 0-24.009833-10.732435-24.009833-24.009833 0-13.239536 10.755971-23.995507 24.009833-23.995507 13.251815 0 23.960715 10.755971 23.960715 23.995507C701.730179 337.500711 691.02128 348.232123 677.769464 348.232123z" />
</svg>