<?xml version="1.0" encoding="utf-8"?>
<!-- Generator: Adobe Illustrator 23.0.1, SVG Export Plug-In . SVG Version: 6.00 Build 0)  -->
<svg version="1.1" id="Layer_1" xmlns="http://www.w3.org/2000/svg" xmlns:xlink="http://www.w3.org/1999/xlink" x="0px" y="0px"
	 viewBox="0 0 2560 1600" style="enable-background:new 0 0 2560 1600;" xml:space="preserve">
<style type="text/css">
	.st0{fill:url(#SVGID_1_);}
</style>
<linearGradient id="SVGID_1_" gradientUnits="userSpaceOnUse" x1="0" y1="603.2534" x2="2560" y2="603.2534">
	<stop  offset="0" style="stop-color:#2193B0"/>
	<stop  offset="1" style="stop-color:#6DD5ED"/>
</linearGradient>
<path class="st0" d="M11.58,963.07c60.94,60.77,136.85,104.88,215.27,139.16c82.97,36.27,171.25,61.07,260.01,78.38
	c81.76,15.94,165.03,25.15,248.36,25.86c111.4,0.95,221.28-16.62,327.87-48.54c104.68-31.35,204.98-75.04,304.41-119.97
	c51.68-23.35,102.89-48.4,155.61-69.33c55.49-22.03,113.19-37.88,172.37-45.95c58.45-7.97,115.75-7.4,174.12,0.36
	c50.84,6.76,104.27,12.66,154.76,0.52c47.71-11.47,85.82-38.15,112.46-79.17c24.6-37.88,41.33-80.15,61.73-120.29
	c22.17-43.64,49.39-81.2,86.8-112.99c39.7-33.75,83.57-62.14,129.1-87.33c47.44-26.25,96.6-49.47,145.54-72.77V0H0v951
	C3.8,955.03,7.67,959.17,11.58,963.07z"/>
</svg>
